<svg width="17" height="16" viewBox="0 0 17 16" fill="none" xmlns="http://www.w3.org/2000/svg">
<path d="M7.65972 2.0156C7.19345 3.13043 6.62605 4.48741 6.39853 5.03227C6.17242 5.57565 5.98141 6.02601 5.98141 6.02601C5.98141 6.02601 5.54884 6.06293 5.02358 6.10279C4.49972 6.14266 3.54329 6.21501 2.89865 6.26374C2.25401 6.31395 1.37202 6.38039 0.939452 6.41288C0.506883 6.44536 0.117851 6.47637 0.075718 6.4808L-0.00012207 6.48966L0.0686958 6.55906C0.10802 6.59597 0.540589 7.00204 1.02934 7.46125C1.51949 7.92047 2.16132 8.52144 2.45625 8.79756C4.23569 10.4661 4.64719 10.8515 4.66404 10.8648C4.68792 10.884 4.76797 10.5281 3.90283 14.2093C3.54329 15.739 3.25257 17 3.25257 17C3.25257 17 4.47304 16.2632 5.96034 15.3507C7.44625 14.4381 8.67233 13.6939 8.68497 13.6969C8.6962 13.6998 9.24394 14.0542 9.89981 14.4824C10.5571 14.9121 11.536 15.5515 12.0767 15.9044C12.6174 16.2573 13.2157 16.6486 13.4067 16.7726C13.5963 16.8981 13.762 17 13.762 17C13.762 17 13.7677 16.9749 13.762 16.9439C13.7536 16.8937 13.1848 14.1428 12.6722 11.6754C12.55 11.0818 12.4489 10.5857 12.4489 10.5724C12.4489 10.5532 13.3604 9.7411 16.658 6.81894C17.0204 6.49852 17.0246 6.49409 16.981 6.48375C16.9557 6.47785 15.5611 6.33019 13.8814 6.15447C12.2017 5.97876 10.8141 5.82963 10.7973 5.82224C10.7762 5.81338 10.7102 5.65834 10.5178 5.16368C10.3801 4.80635 9.93914 3.6679 9.53887 2.63282C9.13861 1.59773 8.74676 0.583315 8.66811 0.381023C8.58947 0.177254 8.52205 0.00744629 8.51644 6.29425e-05C8.51222 -0.00584412 8.126 0.900782 7.65972 2.0156Z" fill="#6C6845"/>
<path d="M7.65972 2.0156C7.19345 3.13043 6.62605 4.48741 6.39853 5.03227C6.17242 5.57565 5.98141 6.02601 5.98141 6.02601C5.98141 6.02601 5.54884 6.06293 5.02358 6.10279C4.49972 6.14266 3.54329 6.21501 2.89865 6.26374C2.25401 6.31395 1.37202 6.38039 0.939452 6.41288C0.506883 6.44536 0.117851 6.47637 0.075718 6.4808L-0.00012207 6.48966L0.0686958 6.55906C0.10802 6.59597 0.540589 7.00204 1.02934 7.46125C1.51949 7.92047 2.16132 8.52144 2.45625 8.79756C4.23569 10.4661 4.64719 10.8515 4.66404 10.8648C4.68792 10.884 4.76797 10.5281 3.90283 14.2093C3.54329 15.739 3.25257 17 3.25257 17C3.25257 17 4.47304 16.2632 5.96034 15.3507C7.44625 14.4381 8.67233 13.6939 8.68497 13.6969C8.6962 13.6998 9.24394 14.0542 9.89981 14.4824C10.5571 14.9121 11.536 15.5515 12.0767 15.9044C12.6174 16.2573 13.2157 16.6486 13.4067 16.7726C13.5963 16.8981 13.762 17 13.762 17C13.762 17 13.7677 16.9749 13.762 16.9439C13.7536 16.8937 13.1848 14.1428 12.6722 11.6754C12.55 11.0818 12.4489 10.5857 12.4489 10.5724C12.4489 10.5532 13.3604 9.7411 16.658 6.81894C17.0204 6.49852 17.0246 6.49409 16.981 6.48375C16.9557 6.47785 15.5611 6.33019 13.8814 6.15447C12.2017 5.97876 10.8141 5.82963 10.7973 5.82224C10.7762 5.81338 10.7102 5.65834 10.5178 5.16368C10.3801 4.80635 9.93914 3.6679 9.53887 2.63282C9.13861 1.59773 8.74676 0.583315 8.66811 0.381023C8.58947 0.177254 8.52205 0.00744629 8.51644 6.29425e-05C8.51222 -0.00584412 8.126 0.900782 7.65972 2.0156Z" fill="white" fill-opacity="0.6"/>
</svg>
